<?xml version="1.0" encoding="utf-8"?>
<!-- Generator: Adobe Illustrator 17.0.0, SVG Export Plug-In . SVG Version: 6.00 Build 0)  -->
<!DOCTYPE svg PUBLIC "-//W3C//DTD SVG 1.1//EN" "http://www.w3.org/Graphics/SVG/1.1/DTD/svg11.dtd">
<svg version="1.1" id="Layer_1" xmlns="http://www.w3.org/2000/svg" xmlns:xlink="http://www.w3.org/1999/xlink" x="0px" y="0px"
	 width="224.909px" height="69.797px" viewBox="0 0 224.909 69.797" enable-background="new 0 0 224.909 69.797"
	 xml:space="preserve">
<g>
	<path fill="#FFFFFF" d="M73.26,31.191h-7.123v-7.796h7.123C73.357,9.05,80.672,0.675,93.284,0v8.858
		c-7.027,0.769-10.686,5.198-10.686,13.093c0,0.483,0,0.963,0,1.445h18.215l-7.529,7.796H82.598v37.449H73.26V31.191z"/>
	<path fill="#FFFFFF" d="M101.084,48.135c0,8.28,3.754,12.612,10.686,12.612c7.027,0,10.878-4.332,10.878-12.612V23.396h9.242
		v24.932c0,5.586-0.192,10.013-3.563,14.345c-3.85,5.008-9.144,7.125-16.462,7.125c-13.478,0-20.023-7.125-20.023-21.47V28.091
		l9.242-4.695C101.084,23.396,101.084,48.135,101.084,48.135z"/>
	<path fill="#FFFFFF" d="M123.039,68.641V43.805c0-14.346,6.836-21.662,20.025-21.662c13.284,0,20.023,7.221,20.023,21.662v24.836
		h-9.242V43.9c0-8.28-3.85-12.61-10.877-12.61c-6.932,0-10.688,4.33-10.688,12.61v24.74L123.039,68.641L123.039,68.641z"/>
	<path fill="#FFFFFF" d="M165.766,0h9.145v42.745l15.114-19.35h11.167L186.56,41.876c9.818,3.178,14.632,11.457,14.632,25.129
		c0,0.576,0,1.058,0,1.635h-9.242c0-0.771,0.098-1.443,0.098-2.119c0-12.418-5.777-18.676-17.137-18.867V68.64h-9.145L165.766,0
		L165.766,0z"/>
	<path fill="#FFFFFF" d="M200.458,23.396h4.619V12.709h9.051v10.687h10.202v7.989h-10.202v14.248c0,8.857,2.888,12.997,10.78,13.767
		v9.241c-12.803-0.192-19.831-7.411-19.831-20.313V31.385h-11.909L200.458,23.396z"/>
	<g>
		<path fill="#FFFFFF" d="M69.289,41.59H50.17c0.254,1.416,0.397,2.86,0.397,4.332c0,1.499-0.144,2.979-0.408,4.429H69.29
			L69.289,41.59L69.289,41.59z"/>
	</g>
	<path fill="#FFFFFF" d="M24.741,22.527c6.257,0,11.552,2.118,15.98,6.547c4.525,4.524,6.932,10.493,6.932,16.848
		c0,6.354-2.406,12.418-6.932,16.942c-4.525,4.524-10.59,6.933-16.943,6.933c-8.953,0-16.173-3.757-19.736-9.819
		C0.962,54.682,0,47.654,0,38.221V0h9.146v28.4C13.67,24.358,18.772,22.527,24.741,22.527z M9.338,46.497
		c0,8.282,5.97,14.155,14.441,14.155c8.664,0,14.537-5.971,14.537-14.636c0-8.566-6.257-14.726-14.537-14.726
		C15.499,31.29,9.338,37.546,9.338,46.497z"/>
</g>
</svg>
